<svg width="24" height="25" viewBox="0 0 24 25" fill="none" xmlns="http://www.w3.org/2000/svg">
<path d="M4 4.5H7L9 2.5H15L17 4.5H20C20.5304 4.5 21.0391 4.71071 21.4142 5.08579C21.7893 5.46086 22 5.96957 22 6.5V18.5C22 19.0304 21.7893 19.5391 21.4142 19.9142C21.0391 20.2893 20.5304 20.5 20 20.5H4C3.46957 20.5 2.96086 20.2893 2.58579 19.9142C2.21071 19.5391 2 19.0304 2 18.5V6.5C2 5.96957 2.21071 5.46086 2.58579 5.08579C2.96086 4.71071 3.46957 4.5 4 4.5ZM12 7.5C10.6739 7.5 9.40215 8.02678 8.46447 8.96447C7.52678 9.90215 7 11.1739 7 12.5C7 13.8261 7.52678 15.0979 8.46447 16.0355C9.40215 16.9732 10.6739 17.5 12 17.5C13.3261 17.5 14.5979 16.9732 15.5355 16.0355C16.4732 15.0979 17 13.8261 17 12.5C17 11.1739 16.4732 9.90215 15.5355 8.96447C14.5979 8.02678 13.3261 7.5 12 7.5ZM12 9.5C12.7956 9.5 13.5587 9.81607 14.1213 10.3787C14.6839 10.9413 15 11.7044 15 12.5C15 13.2956 14.6839 14.0587 14.1213 14.6213C13.5587 15.1839 12.7956 15.5 12 15.5C11.2044 15.5 10.4413 15.1839 9.87868 14.6213C9.31607 14.0587 9 13.2956 9 12.5C9 11.7044 9.31607 10.9413 9.87868 10.3787C10.4413 9.81607 11.2044 9.5 12 9.5Z" fill="#CBE249"/>
</svg>
