<svg width="24" height="25" viewBox="0 0 24 25" fill="none" xmlns="http://www.w3.org/2000/svg">
<path fill-rule="evenodd" clip-rule="evenodd" d="M12.0001 16.2501C12.199 16.2501 12.3898 16.1711 12.5304 16.0304C12.6711 15.8897 12.7501 15.699 12.7501 15.5001V4.52707L14.4301 6.48807C14.5595 6.63924 14.7437 6.73281 14.9421 6.74819C15.1405 6.76357 15.3369 6.69949 15.4881 6.57007C15.6393 6.44064 15.7329 6.25647 15.7482 6.05805C15.7636 5.85964 15.6995 5.66324 15.5701 5.51207L12.5701 2.01207C12.4997 1.92973 12.4123 1.86363 12.3139 1.81831C12.2155 1.77298 12.1085 1.74951 12.0001 1.74951C11.8918 1.74951 11.7847 1.77298 11.6863 1.81831C11.5879 1.86363 11.5005 1.92973 11.4301 2.01207L8.43012 5.51207C8.36603 5.58692 8.31732 5.67367 8.28676 5.76735C8.2562 5.86103 8.24439 5.95981 8.252 6.05805C8.25961 6.1563 8.28651 6.25208 8.33114 6.33993C8.37577 6.42778 8.43727 6.50598 8.51212 6.57007C8.58697 6.63415 8.67372 6.68287 8.7674 6.71343C8.86108 6.74399 8.95986 6.7558 9.0581 6.74819C9.15635 6.74057 9.25213 6.71368 9.33998 6.66905C9.42783 6.62442 9.50603 6.56292 9.57012 6.48807L11.2501 4.52807V15.5001C11.2501 15.9141 11.5861 16.2501 12.0001 16.2501Z" fill="#CBE249"/>
<path d="M16 9.5C15.298 9.5 14.947 9.5 14.694 9.669C14.5852 9.74179 14.4918 9.83522 14.419 9.944C14.25 10.197 14.25 10.548 14.25 11.25V15.5C14.25 16.0967 14.0129 16.669 13.591 17.091C13.169 17.5129 12.5967 17.75 12 17.75C11.4033 17.75 10.831 17.5129 10.409 17.091C9.98705 16.669 9.75 16.0967 9.75 15.5V11.25C9.75 10.548 9.75 10.197 9.581 9.944C9.50821 9.83522 9.41478 9.74179 9.306 9.669C9.053 9.5 8.702 9.5 8 9.5C5.172 9.5 3.757 9.5 2.879 10.379C2 11.257 2 12.67 2 15.499V16.499C2 19.329 2 20.742 2.879 21.621C3.757 22.5 5.172 22.5 8 22.5H16C18.828 22.5 20.243 22.5 21.121 21.621C21.999 20.742 22 19.328 22 16.5V15.5C22 12.671 22 11.257 21.121 10.379C20.243 9.5 18.828 9.5 16 9.5Z" fill="#CBE249"/>
</svg>
